<?xml version="1.0" encoding="UTF-8"?>
<svg xmlns="http://www.w3.org/2000/svg" xmlns:xlink="http://www.w3.org/1999/xlink" viewBox="0 0 50 50" width="50px" height="50px">
<g id="surface44588288">
<path style=" stroke:none;fill-rule:nonzero;fill:rgb(33.725491%,23.921569%,48.627451%);fill-opacity:1;" d="M 25 2 C 20.941406 2 18.199219 2.964844 16.449219 4.371094 C 14.699219 5.777344 14 7.59375 14 9.097656 L 14 14 L 24 14 L 24 15 L 9.101562 15 C 7.269531 15 5.417969 15.804688 4.101562 17.480469 C 2.785156 19.160156 2 21.644531 2 25 C 2 28.355469 2.785156 30.839844 4.101562 32.515625 C 5.417969 34.195312 7.269531 35 9.101562 35 L 14 35 L 14 40.898438 C 14 42.40625 14.699219 44.222656 16.449219 45.628906 C 18.199219 47.035156 20.941406 48 25 48 C 29.058594 48 31.800781 47.035156 33.550781 45.628906 C 35.300781 44.222656 36 42.40625 36 40.898438 L 36 36 L 26 36 L 26 35 L 40.902344 35 C 42.730469 35 44.582031 34.195312 45.898438 32.515625 C 47.214844 30.839844 48 28.355469 48 25 C 48 21.644531 47.214844 19.160156 45.898438 17.480469 C 44.582031 15.804688 42.730469 15 40.902344 15 L 36 15 L 36 9.097656 C 36 7.554688 35.300781 5.722656 33.546875 4.328125 C 31.792969 2.9375 29.054688 2 25 2 Z M 25 4 C 28.746094 4 31.003906 4.863281 32.300781 5.894531 C 33.601562 6.925781 34 8.144531 34 9.101562 L 34 21 C 34 22.449219 32.96875 23.660156 31.605469 23.941406 C 31.410156 23.980469 31.207031 24 31 24 L 19 24 C 16.253906 24 14 26.253906 14 29 L 14 33 L 9.101562 33 C 7.828125 33 6.632812 32.507812 5.675781 31.285156 C 4.714844 30.058594 4 28.042969 4 25 C 4 21.957031 4.714844 19.941406 5.675781 18.714844 C 6.632812 17.492188 7.828125 17 9.101562 17 L 26 17 L 26 12 L 16 12 L 16 9.101562 C 16 8.207031 16.402344 6.972656 17.699219 5.929688 C 19 4.886719 21.257812 4 25 4 Z M 20 7 C 18.898438 7 18 7.898438 18 9 C 18 10.101562 18.898438 11 20 11 C 21.101562 11 22 10.101562 22 9 C 22 7.898438 21.101562 7 20 7 Z M 36 17 L 40.902344 17 C 42.171875 17 43.367188 17.492188 44.328125 18.714844 C 45.285156 19.941406 46 21.957031 46 25 C 46 28.042969 45.285156 30.058594 44.328125 31.285156 C 43.367188 32.507812 42.171875 33 40.902344 33 L 24 33 L 24 38 L 34 38 L 34 40.902344 C 34 41.792969 33.597656 43.027344 32.300781 44.070312 C 31 45.113281 28.742188 46 25 46 C 21.257812 46 19 45.113281 17.699219 44.070312 C 16.402344 43.027344 16 41.792969 16 40.902344 L 16 29 C 16 28.792969 16.019531 28.589844 16.058594 28.394531 C 16.339844 27.03125 17.550781 26 19 26 L 31 26 C 31.171875 26 31.339844 25.992188 31.507812 25.972656 C 34.019531 25.71875 36 23.574219 36 21 Z M 30 39 C 28.898438 39 28 39.898438 28 41 C 28 42.101562 28.898438 43 30 43 C 31.101562 43 32 42.101562 32 41 C 32 39.898438 31.101562 39 30 39 Z M 30 39 "/>
</g>
</svg>
